<mxfile host="app.diagrams.net" agent="Mozilla/5.0 (Windows NT 10.0; Win64; x64) AppleWebKit/537.36 (KHTML, like Gecko) Chrome/131.0.0.0 Safari/537.36 Edg/131.0.0.0" version="25.0.3">
  <diagram name="Casos de Uso" id="Ez9yJKbT3FZj1GrWo6bu">
    <mxGraphModel dx="996" dy="565" grid="1" gridSize="10" guides="1" tooltips="1" connect="1" arrows="1" fold="1" page="1" pageScale="1" pageWidth="850" pageHeight="1100" math="0" shadow="0">
      <root>
        <mxCell id="0" />
        <mxCell id="1" parent="0" />
        <mxCell id="PlXIWxntAT54vZ6deg7Z-87" value="Início" style="shape=ellipse;whiteSpace=wrap;html=1;fillColor=#00FF00;strokeColor=#000000;" vertex="1" parent="1">
          <mxGeometry x="650" y="110" width="60" height="60" as="geometry" />
        </mxCell>
        <mxCell id="PlXIWxntAT54vZ6deg7Z-88" value="Escolher Filme" style="shape=ellipse;whiteSpace=wrap;html=1;" vertex="1" parent="1">
          <mxGeometry x="750" y="110" width="160" height="60" as="geometry" />
        </mxCell>
        <mxCell id="PlXIWxntAT54vZ6deg7Z-89" value="Escolher Sessão" style="shape=ellipse;whiteSpace=wrap;html=1;" vertex="1" parent="1">
          <mxGeometry x="750" y="210" width="160" height="60" as="geometry" />
        </mxCell>
        <mxCell id="PlXIWxntAT54vZ6deg7Z-90" value="Escolher Assento" style="shape=ellipse;whiteSpace=wrap;html=1;" vertex="1" parent="1">
          <mxGeometry x="750" y="310" width="160" height="60" as="geometry" />
        </mxCell>
        <mxCell id="PlXIWxntAT54vZ6deg7Z-91" value="Realizar Pagamento" style="shape=ellipse;whiteSpace=wrap;html=1;" vertex="1" parent="1">
          <mxGeometry x="750" y="410" width="160" height="60" as="geometry" />
        </mxCell>
        <mxCell id="PlXIWxntAT54vZ6deg7Z-92" value="Confirmar Compra" style="shape=ellipse;whiteSpace=wrap;html=1;" vertex="1" parent="1">
          <mxGeometry x="750" y="510" width="160" height="60" as="geometry" />
        </mxCell>
        <mxCell id="PlXIWxntAT54vZ6deg7Z-93" value="Emitir Ingresso" style="shape=ellipse;whiteSpace=wrap;html=1;" vertex="1" parent="1">
          <mxGeometry x="750" y="610" width="160" height="60" as="geometry" />
        </mxCell>
        <mxCell id="PlXIWxntAT54vZ6deg7Z-94" value="Fim" style="shape=ellipse;whiteSpace=wrap;html=1;fillColor=#FF0000;strokeColor=#000000;" vertex="1" parent="1">
          <mxGeometry x="800" y="720" width="60" height="60" as="geometry" />
        </mxCell>
        <mxCell id="PlXIWxntAT54vZ6deg7Z-95" style="edgeStyle=orthogonalEdgeStyle;rounded=0;orthogonal=1;jettySize=auto;html=1;exitX=0.5;exitY=0;exitDx=0;exitDy=0;" edge="1" parent="1" source="PlXIWxntAT54vZ6deg7Z-87" target="PlXIWxntAT54vZ6deg7Z-88">
          <mxGeometry relative="1" as="geometry" />
        </mxCell>
        <mxCell id="PlXIWxntAT54vZ6deg7Z-102" value="" style="endArrow=open;startArrow=none;endFill=0;startFill=0;endSize=8;html=1;verticalAlign=bottom;labelBackgroundColor=none;strokeWidth=1;rounded=0;exitX=0.5;exitY=1;exitDx=0;exitDy=0;entryX=0.5;entryY=0;entryDx=0;entryDy=0;" edge="1" parent="1" source="PlXIWxntAT54vZ6deg7Z-88" target="PlXIWxntAT54vZ6deg7Z-89">
          <mxGeometry width="160" relative="1" as="geometry">
            <mxPoint x="480" y="210" as="sourcePoint" />
            <mxPoint x="640" y="210" as="targetPoint" />
          </mxGeometry>
        </mxCell>
        <mxCell id="PlXIWxntAT54vZ6deg7Z-103" value="" style="endArrow=open;startArrow=none;endFill=0;startFill=0;endSize=8;html=1;verticalAlign=bottom;labelBackgroundColor=none;strokeWidth=1;rounded=0;exitX=0.5;exitY=1;exitDx=0;exitDy=0;entryX=0.5;entryY=0;entryDx=0;entryDy=0;" edge="1" parent="1" source="PlXIWxntAT54vZ6deg7Z-89" target="PlXIWxntAT54vZ6deg7Z-90">
          <mxGeometry width="160" relative="1" as="geometry">
            <mxPoint x="490" y="220" as="sourcePoint" />
            <mxPoint x="650" y="220" as="targetPoint" />
          </mxGeometry>
        </mxCell>
        <mxCell id="PlXIWxntAT54vZ6deg7Z-104" value="" style="endArrow=open;startArrow=none;endFill=0;startFill=0;endSize=8;html=1;verticalAlign=bottom;labelBackgroundColor=none;strokeWidth=1;rounded=0;exitX=0.5;exitY=1;exitDx=0;exitDy=0;entryX=0.5;entryY=0;entryDx=0;entryDy=0;" edge="1" parent="1" source="PlXIWxntAT54vZ6deg7Z-90" target="PlXIWxntAT54vZ6deg7Z-91">
          <mxGeometry width="160" relative="1" as="geometry">
            <mxPoint x="500" y="230" as="sourcePoint" />
            <mxPoint x="660" y="230" as="targetPoint" />
          </mxGeometry>
        </mxCell>
        <mxCell id="PlXIWxntAT54vZ6deg7Z-106" value="" style="endArrow=open;startArrow=none;endFill=0;startFill=0;endSize=8;html=1;verticalAlign=bottom;labelBackgroundColor=none;strokeWidth=1;rounded=0;exitX=0.5;exitY=1;exitDx=0;exitDy=0;entryX=0.5;entryY=0;entryDx=0;entryDy=0;" edge="1" parent="1" source="PlXIWxntAT54vZ6deg7Z-92" target="PlXIWxntAT54vZ6deg7Z-93">
          <mxGeometry width="160" relative="1" as="geometry">
            <mxPoint x="520" y="250" as="sourcePoint" />
            <mxPoint x="680" y="250" as="targetPoint" />
          </mxGeometry>
        </mxCell>
        <mxCell id="PlXIWxntAT54vZ6deg7Z-107" value="" style="endArrow=open;startArrow=none;endFill=0;startFill=0;endSize=8;html=1;verticalAlign=bottom;labelBackgroundColor=none;strokeWidth=1;rounded=0;exitX=0.5;exitY=1;exitDx=0;exitDy=0;entryX=0.5;entryY=0;entryDx=0;entryDy=0;" edge="1" parent="1" source="PlXIWxntAT54vZ6deg7Z-91" target="PlXIWxntAT54vZ6deg7Z-92">
          <mxGeometry width="160" relative="1" as="geometry">
            <mxPoint x="530" y="260" as="sourcePoint" />
            <mxPoint x="690" y="260" as="targetPoint" />
          </mxGeometry>
        </mxCell>
        <mxCell id="PlXIWxntAT54vZ6deg7Z-108" value="" style="endArrow=open;startArrow=none;endFill=0;startFill=0;endSize=8;html=1;verticalAlign=bottom;labelBackgroundColor=none;strokeWidth=1;rounded=0;entryX=0.5;entryY=0;entryDx=0;entryDy=0;exitX=0.5;exitY=1;exitDx=0;exitDy=0;" edge="1" parent="1" source="PlXIWxntAT54vZ6deg7Z-93" target="PlXIWxntAT54vZ6deg7Z-94">
          <mxGeometry width="160" relative="1" as="geometry">
            <mxPoint x="776.25" y="800" as="sourcePoint" />
            <mxPoint x="783.75" y="710" as="targetPoint" />
          </mxGeometry>
        </mxCell>
        <mxCell id="PlXIWxntAT54vZ6deg7Z-109" value="Início" style="shape=ellipse;whiteSpace=wrap;html=1;fillColor=#00FF00;strokeColor=#000000;" vertex="1" parent="1">
          <mxGeometry x="100" y="100" width="60" height="60" as="geometry" />
        </mxCell>
        <mxCell id="PlXIWxntAT54vZ6deg7Z-110" value="Escolher Filme" style="shape=ellipse;whiteSpace=wrap;html=1;" vertex="1" parent="1">
          <mxGeometry x="200" y="100" width="160" height="60" as="geometry" />
        </mxCell>
        <mxCell id="PlXIWxntAT54vZ6deg7Z-111" value="Escolher Sessão" style="shape=ellipse;whiteSpace=wrap;html=1;" vertex="1" parent="1">
          <mxGeometry x="200" y="200" width="160" height="60" as="geometry" />
        </mxCell>
        <mxCell id="PlXIWxntAT54vZ6deg7Z-112" value="Escolher Assento" style="shape=ellipse;whiteSpace=wrap;html=1;" vertex="1" parent="1">
          <mxGeometry x="200" y="300" width="160" height="60" as="geometry" />
        </mxCell>
        <mxCell id="PlXIWxntAT54vZ6deg7Z-113" value="Realizar Pagamento" style="shape=ellipse;whiteSpace=wrap;html=1;" vertex="1" parent="1">
          <mxGeometry x="200" y="400" width="160" height="60" as="geometry" />
        </mxCell>
        <mxCell id="PlXIWxntAT54vZ6deg7Z-114" value="Falha no Pagamento" style="shape=ellipse;whiteSpace=wrap;html=1;fillColor=#FFAAAA;strokeColor=#FF0000;" vertex="1" parent="1">
          <mxGeometry x="400" y="450" width="160" height="60" as="geometry" />
        </mxCell>
        <mxCell id="PlXIWxntAT54vZ6deg7Z-115" value="Cancelar Compra" style="shape=ellipse;whiteSpace=wrap;html=1;fillColor=#FFAAAA;strokeColor=#FF0000;" vertex="1" parent="1">
          <mxGeometry x="400" y="550" width="160" height="60" as="geometry" />
        </mxCell>
        <mxCell id="PlXIWxntAT54vZ6deg7Z-116" value="Confirmar Compra" style="shape=ellipse;whiteSpace=wrap;html=1;" vertex="1" parent="1">
          <mxGeometry x="200" y="500" width="160" height="60" as="geometry" />
        </mxCell>
        <mxCell id="PlXIWxntAT54vZ6deg7Z-117" value="Emitir Ingresso" style="shape=ellipse;whiteSpace=wrap;html=1;" vertex="1" parent="1">
          <mxGeometry x="200" y="600" width="160" height="60" as="geometry" />
        </mxCell>
        <mxCell id="PlXIWxntAT54vZ6deg7Z-118" value="Fim" style="shape=ellipse;whiteSpace=wrap;html=1;fillColor=#FF0000;strokeColor=#000000;" vertex="1" parent="1">
          <mxGeometry x="200" y="700" width="60" height="60" as="geometry" />
        </mxCell>
        <mxCell id="PlXIWxntAT54vZ6deg7Z-119" style="edgeStyle=orthogonalEdgeStyle;rounded=0;orthogonal=1;jettySize=auto;html=1;exitX=0.5;exitY=0;exitDx=0;exitDy=0;" edge="1" parent="1" source="PlXIWxntAT54vZ6deg7Z-109" target="PlXIWxntAT54vZ6deg7Z-110">
          <mxGeometry relative="1" as="geometry" />
        </mxCell>
        <mxCell id="PlXIWxntAT54vZ6deg7Z-120" style="edgeStyle=orthogonalEdgeStyle;rounded=0;orthogonal=1;jettySize=auto;html=1;exitX=0.5;exitY=0;exitDx=0;exitDy=0;" edge="1" parent="1" source="PlXIWxntAT54vZ6deg7Z-110" target="PlXIWxntAT54vZ6deg7Z-111">
          <mxGeometry relative="1" as="geometry" />
        </mxCell>
        <mxCell id="PlXIWxntAT54vZ6deg7Z-121" style="edgeStyle=orthogonalEdgeStyle;rounded=0;orthogonal=1;jettySize=auto;html=1;exitX=0.5;exitY=0;exitDx=0;exitDy=0;" edge="1" parent="1" source="PlXIWxntAT54vZ6deg7Z-111" target="PlXIWxntAT54vZ6deg7Z-112">
          <mxGeometry relative="1" as="geometry" />
        </mxCell>
        <mxCell id="PlXIWxntAT54vZ6deg7Z-122" style="edgeStyle=orthogonalEdgeStyle;rounded=0;orthogonal=1;jettySize=auto;html=1;exitX=0.5;exitY=0;exitDx=0;exitDy=0;" edge="1" parent="1" source="PlXIWxntAT54vZ6deg7Z-112" target="PlXIWxntAT54vZ6deg7Z-113">
          <mxGeometry relative="1" as="geometry" />
        </mxCell>
        <mxCell id="PlXIWxntAT54vZ6deg7Z-123" style="edgeStyle=orthogonalEdgeStyle;rounded=0;orthogonal=1;jettySize=auto;html=1;exitX=0.5;exitY=0;exitDx=0;exitDy=0;" edge="1" parent="1" source="PlXIWxntAT54vZ6deg7Z-113" target="PlXIWxntAT54vZ6deg7Z-116">
          <mxGeometry relative="1" as="geometry" />
        </mxCell>
        <mxCell id="PlXIWxntAT54vZ6deg7Z-124" style="edgeStyle=orthogonalEdgeStyle;rounded=0;orthogonal=1;jettySize=auto;html=1;exitX=0.5;exitY=1;exitDx=0;exitDy=0;" edge="1" parent="1" source="PlXIWxntAT54vZ6deg7Z-113" target="PlXIWxntAT54vZ6deg7Z-114">
          <mxGeometry relative="1" as="geometry" />
        </mxCell>
        <mxCell id="PlXIWxntAT54vZ6deg7Z-125" style="edgeStyle=orthogonalEdgeStyle;rounded=0;orthogonal=1;jettySize=auto;html=1;exitX=0.5;exitY=0;exitDx=0;exitDy=0;" edge="1" parent="1" source="PlXIWxntAT54vZ6deg7Z-114" target="PlXIWxntAT54vZ6deg7Z-113">
          <mxGeometry relative="1" as="geometry" />
        </mxCell>
        <mxCell id="PlXIWxntAT54vZ6deg7Z-126" style="edgeStyle=orthogonalEdgeStyle;rounded=0;orthogonal=1;jettySize=auto;html=1;exitX=0.5;exitY=0;exitDx=0;exitDy=0;" edge="1" parent="1" source="PlXIWxntAT54vZ6deg7Z-112" target="PlXIWxntAT54vZ6deg7Z-115">
          <mxGeometry relative="1" as="geometry" />
        </mxCell>
        <mxCell id="PlXIWxntAT54vZ6deg7Z-127" style="edgeStyle=orthogonalEdgeStyle;rounded=0;orthogonal=1;jettySize=auto;html=1;exitX=0.5;exitY=0;exitDx=0;exitDy=0;" edge="1" parent="1" source="PlXIWxntAT54vZ6deg7Z-115" target="PlXIWxntAT54vZ6deg7Z-118">
          <mxGeometry relative="1" as="geometry" />
        </mxCell>
        <mxCell id="PlXIWxntAT54vZ6deg7Z-128" style="edgeStyle=orthogonalEdgeStyle;rounded=0;orthogonal=1;jettySize=auto;html=1;exitX=0.5;exitY=0;exitDx=0;exitDy=0;" edge="1" parent="1" source="PlXIWxntAT54vZ6deg7Z-116" target="PlXIWxntAT54vZ6deg7Z-117">
          <mxGeometry relative="1" as="geometry" />
        </mxCell>
        <mxCell id="PlXIWxntAT54vZ6deg7Z-129" style="edgeStyle=orthogonalEdgeStyle;rounded=0;orthogonal=1;jettySize=auto;html=1;exitX=0.5;exitY=0;exitDx=0;exitDy=0;" edge="1" parent="1" source="PlXIWxntAT54vZ6deg7Z-117" target="PlXIWxntAT54vZ6deg7Z-118">
          <mxGeometry relative="1" as="geometry" />
        </mxCell>
        <mxCell id="PlXIWxntAT54vZ6deg7Z-130" value="Início" style="shape=ellipse;whiteSpace=wrap;html=1;fillColor=#00FF00;strokeColor=#000000;" vertex="1" parent="1">
          <mxGeometry x="390" y="700" width="60" height="60" as="geometry" />
        </mxCell>
        <mxCell id="PlXIWxntAT54vZ6deg7Z-131" value="Escolher Filme" style="shape=ellipse;whiteSpace=wrap;html=1;" vertex="1" parent="1">
          <mxGeometry x="490" y="700" width="160" height="60" as="geometry" />
        </mxCell>
        <mxCell id="PlXIWxntAT54vZ6deg7Z-132" value="Escolher Sessão" style="shape=ellipse;whiteSpace=wrap;html=1;" vertex="1" parent="1">
          <mxGeometry x="490" y="800" width="160" height="60" as="geometry" />
        </mxCell>
        <mxCell id="PlXIWxntAT54vZ6deg7Z-133" value="Escolher Assento" style="shape=ellipse;whiteSpace=wrap;html=1;" vertex="1" parent="1">
          <mxGeometry x="490" y="900" width="160" height="60" as="geometry" />
        </mxCell>
        <mxCell id="PlXIWxntAT54vZ6deg7Z-134" value="Realizar Pagamento" style="shape=ellipse;whiteSpace=wrap;html=1;" vertex="1" parent="1">
          <mxGeometry x="490" y="1000" width="160" height="60" as="geometry" />
        </mxCell>
        <mxCell id="PlXIWxntAT54vZ6deg7Z-135" value="Pagamento Bem-sucedido?" style="shape=diamond;whiteSpace=wrap;html=1;" vertex="1" parent="1">
          <mxGeometry x="690" y="1100" width="60" height="60" as="geometry" />
        </mxCell>
        <mxCell id="PlXIWxntAT54vZ6deg7Z-136" value="Falha no Pagamento" style="shape=ellipse;whiteSpace=wrap;html=1;fillColor=#FFAAAA;strokeColor=#FF0000;" vertex="1" parent="1">
          <mxGeometry x="690" y="1150" width="160" height="60" as="geometry" />
        </mxCell>
        <mxCell id="PlXIWxntAT54vZ6deg7Z-137" value="Cancelar Compra" style="shape=ellipse;whiteSpace=wrap;html=1;fillColor=#FFAAAA;strokeColor=#FF0000;" vertex="1" parent="1">
          <mxGeometry x="690" y="1250" width="160" height="60" as="geometry" />
        </mxCell>
        <mxCell id="PlXIWxntAT54vZ6deg7Z-138" value="Confirmar Compra" style="shape=ellipse;whiteSpace=wrap;html=1;" vertex="1" parent="1">
          <mxGeometry x="490" y="1100" width="160" height="60" as="geometry" />
        </mxCell>
        <mxCell id="PlXIWxntAT54vZ6deg7Z-139" value="Emitir Ingresso" style="shape=ellipse;whiteSpace=wrap;html=1;" vertex="1" parent="1">
          <mxGeometry x="490" y="1300" width="160" height="60" as="geometry" />
        </mxCell>
        <mxCell id="PlXIWxntAT54vZ6deg7Z-140" value="Fim" style="shape=ellipse;whiteSpace=wrap;html=1;fillColor=#FF0000;strokeColor=#000000;" vertex="1" parent="1">
          <mxGeometry x="490" y="1400" width="60" height="60" as="geometry" />
        </mxCell>
        <mxCell id="PlXIWxntAT54vZ6deg7Z-141" style="edgeStyle=orthogonalEdgeStyle;rounded=0;orthogonal=1;jettySize=auto;html=1;exitX=0.5;exitY=0;exitDx=0;exitDy=0;" edge="1" parent="1" source="PlXIWxntAT54vZ6deg7Z-130" target="PlXIWxntAT54vZ6deg7Z-131">
          <mxGeometry relative="1" as="geometry" />
        </mxCell>
        <mxCell id="PlXIWxntAT54vZ6deg7Z-142" style="edgeStyle=orthogonalEdgeStyle;rounded=0;orthogonal=1;jettySize=auto;html=1;exitX=0.5;exitY=0;exitDx=0;exitDy=0;" edge="1" parent="1" source="PlXIWxntAT54vZ6deg7Z-131" target="PlXIWxntAT54vZ6deg7Z-132">
          <mxGeometry relative="1" as="geometry" />
        </mxCell>
        <mxCell id="PlXIWxntAT54vZ6deg7Z-143" style="edgeStyle=orthogonalEdgeStyle;rounded=0;orthogonal=1;jettySize=auto;html=1;exitX=0.5;exitY=0;exitDx=0;exitDy=0;" edge="1" parent="1" source="PlXIWxntAT54vZ6deg7Z-132" target="PlXIWxntAT54vZ6deg7Z-133">
          <mxGeometry relative="1" as="geometry" />
        </mxCell>
        <mxCell id="PlXIWxntAT54vZ6deg7Z-144" style="edgeStyle=orthogonalEdgeStyle;rounded=0;orthogonal=1;jettySize=auto;html=1;exitX=0.5;exitY=0;exitDx=0;exitDy=0;" edge="1" parent="1" source="PlXIWxntAT54vZ6deg7Z-133" target="PlXIWxntAT54vZ6deg7Z-134">
          <mxGeometry relative="1" as="geometry" />
        </mxCell>
        <mxCell id="PlXIWxntAT54vZ6deg7Z-145" style="edgeStyle=orthogonalEdgeStyle;rounded=0;orthogonal=1;jettySize=auto;html=1;exitX=0.5;exitY=1;exitDx=0;exitDy=0;" edge="1" parent="1" source="PlXIWxntAT54vZ6deg7Z-134" target="PlXIWxntAT54vZ6deg7Z-135">
          <mxGeometry relative="1" as="geometry" />
        </mxCell>
        <mxCell id="PlXIWxntAT54vZ6deg7Z-146" style="edgeStyle=orthogonalEdgeStyle;rounded=0;orthogonal=1;jettySize=auto;html=1;exitX=0.5;exitY=1;exitDx=0;exitDy=0;" edge="1" parent="1" source="PlXIWxntAT54vZ6deg7Z-135" target="PlXIWxntAT54vZ6deg7Z-138">
          <mxGeometry relative="1" as="geometry" />
        </mxCell>
        <mxCell id="PlXIWxntAT54vZ6deg7Z-147" style="edgeStyle=orthogonalEdgeStyle;rounded=0;orthogonal=1;jettySize=auto;html=1;exitX=0.5;exitY=0;exitDx=0;exitDy=0;" edge="1" parent="1" source="PlXIWxntAT54vZ6deg7Z-135" target="PlXIWxntAT54vZ6deg7Z-136">
          <mxGeometry relative="1" as="geometry" />
        </mxCell>
        <mxCell id="PlXIWxntAT54vZ6deg7Z-148" style="edgeStyle=orthogonalEdgeStyle;rounded=0;orthogonal=1;jettySize=auto;html=1;exitX=0.5;exitY=0;exitDx=0;exitDy=0;" edge="1" parent="1" source="PlXIWxntAT54vZ6deg7Z-136" target="PlXIWxntAT54vZ6deg7Z-134">
          <mxGeometry relative="1" as="geometry" />
        </mxCell>
        <mxCell id="PlXIWxntAT54vZ6deg7Z-149" style="edgeStyle=orthogonalEdgeStyle;rounded=0;orthogonal=1;jettySize=auto;html=1;exitX=0.5;exitY=0;exitDx=0;exitDy=0;" edge="1" parent="1" source="PlXIWxntAT54vZ6deg7Z-133" target="PlXIWxntAT54vZ6deg7Z-137">
          <mxGeometry relative="1" as="geometry" />
        </mxCell>
        <mxCell id="PlXIWxntAT54vZ6deg7Z-150" style="edgeStyle=orthogonalEdgeStyle;rounded=0;orthogonal=1;jettySize=auto;html=1;exitX=0.5;exitY=0;exitDx=0;exitDy=0;" edge="1" parent="1" source="PlXIWxntAT54vZ6deg7Z-137" target="PlXIWxntAT54vZ6deg7Z-140">
          <mxGeometry relative="1" as="geometry" />
        </mxCell>
        <mxCell id="PlXIWxntAT54vZ6deg7Z-151" style="edgeStyle=orthogonalEdgeStyle;rounded=0;orthogonal=1;jettySize=auto;html=1;exitX=0.5;exitY=0;exitDx=0;exitDy=0;" edge="1" parent="1" source="PlXIWxntAT54vZ6deg7Z-138" target="PlXIWxntAT54vZ6deg7Z-139">
          <mxGeometry relative="1" as="geometry" />
        </mxCell>
        <mxCell id="PlXIWxntAT54vZ6deg7Z-152" style="edgeStyle=orthogonalEdgeStyle;rounded=0;orthogonal=1;jettySize=auto;html=1;exitX=0.5;exitY=0;exitDx=0;exitDy=0;" edge="1" parent="1" source="PlXIWxntAT54vZ6deg7Z-139" target="PlXIWxntAT54vZ6deg7Z-140">
          <mxGeometry relative="1" as="geometry" />
        </mxCell>
      </root>
    </mxGraphModel>
  </diagram>
</mxfile>
